<?xml version="1.0" standalone="no"?>
<!DOCTYPE svg PUBLIC "-//W3C//DTD SVG 20010904//EN"
 "http://www.w3.org/TR/2001/REC-SVG-20010904/DTD/svg10.dtd">
<svg version="1.0" xmlns="http://www.w3.org/2000/svg"
 width="960.000000pt" height="380.000000pt" viewBox="0 0 960.000000 380.000000"
 preserveAspectRatio="xMidYMid meet">

<g transform="translate(0.000000,380.000000) scale(0.100000,-0.100000)"
fill="#ffffff" stroke="none">
<path d="M5260 3790 c-30 -4 -327 -8 -660 -9 -347 -1 -663 -6 -742 -12 -120
-10 -146 -9 -206 5 -64 16 -76 16 -183 1 -135 -20 -549 -36 -1064 -42 -484 -7
-589 -5 -655 10 -40 10 -81 11 -155 4 -134 -12 -643 -14 -830 -3 -147 9 -335
-3 -392 -25 -44 -16 -56 -62 -63 -234 -5 -135 -10 -168 -29 -210 -12 -27 -30
-59 -40 -70 -15 -17 -20 -54 -30 -270 -6 -137 -21 -362 -31 -500 -11 -137 -29
-367 -40 -510 -33 -423 -61 -609 -116 -794 l-25 -83 22 -24 c13 -13 39 -28 58
-33 49 -13 668 -46 811 -44 63 1 156 7 205 13 50 6 307 13 585 16 493 5 495 5
595 31 92 24 106 25 168 14 100 -17 209 -13 327 10 91 17 153 21 450 24 190 2
440 8 555 14 116 6 294 8 396 4 146 -5 219 -2 342 12 151 17 164 17 321 0 169
-18 236 -18 865 1 113 4 310 1 440 -5 171 -8 265 -9 341 -1 58 6 383 13 722
16 l618 5 -15 -40 c-13 -38 -13 -40 7 -47 11 -3 23 -2 27 3 3 5 16 26 29 46
l24 37 111 0 c83 0 129 5 177 20 78 24 121 25 186 5 120 -38 244 -36 404 6 54
14 106 20 185 20 105 -1 113 1 180 34 41 20 93 36 126 40 55 6 55 6 127 92 40
47 75 97 78 110 4 16 -2 35 -20 61 -14 21 -26 45 -26 53 0 7 14 40 31 73 19
36 40 101 54 170 13 61 28 124 34 139 22 57 14 87 -34 130 -53 48 -58 77 -20
128 60 82 68 133 35 237 -11 35 -20 80 -20 99 0 42 25 97 54 121 19 15 20 20
9 42 -20 39 -15 95 13 153 l26 53 -36 75 c-54 111 -62 189 -41 380 27 245 28
256 21 294 -9 44 -74 115 -106 115 -13 0 -56 -16 -96 -36 -80 -39 -60 -38
-279 -14 -84 10 -132 10 -202 1 -127 -15 -164 -14 -310 10 -116 19 -152 20
-378 14 -212 -5 -263 -4 -335 10 -90 18 -247 22 -1060 30 -217 2 -415 5 -440
6 -25 2 -78 -3 -118 -10 -65 -11 -93 -10 -245 9 -184 24 -274 22 -328 -5 -29
-16 -34 -15 -83 6 -57 25 -206 34 -306 19z m-545 -103 c44 -1 136 3 205 7 100
7 142 5 210 -8 64 -13 129 -16 265 -14 99 2 322 2 497 0 260 -3 331 -1 403 13
81 15 94 15 184 -1 80 -14 125 -15 271 -8 261 13 391 11 528 -9 103 -15 135
-16 190 -7 128 22 165 22 275 1 89 -17 146 -21 325 -21 119 0 300 -7 402 -14
129 -10 271 -13 470 -9 157 3 306 3 331 -1 l46 -7 -3 -282 c-2 -155 -9 -345
-15 -422 -6 -77 -12 -181 -13 -232 -1 -81 2 -95 22 -122 23 -31 23 -35 26
-359 3 -272 0 -353 -15 -482 -11 -85 -19 -190 -19 -234 0 -91 -22 -149 -70
-190 -26 -22 -41 -25 -157 -30 -211 -10 -328 -24 -433 -52 l-100 -25 -83 18
c-109 24 -463 24 -687 0 -132 -14 -235 -16 -695 -12 -297 3 -564 8 -594 10
-30 3 -101 0 -159 -6 -83 -10 -129 -9 -216 1 -191 22 -578 13 -912 -21 -101
-11 -123 -10 -243 11 -146 24 -85 25 -826 -5 -578 -23 -1025 -29 -1166 -15
-96 9 -134 10 -164 0 -22 -6 -155 -15 -295 -20 -140 -5 -329 -15 -420 -24 -91
-8 -293 -22 -450 -31 -157 -8 -396 -25 -532 -37 -239 -21 -251 -21 -400 -5
-93 11 -233 17 -358 17 l-204 0 49 50 50 51 0 107 0 107 38 56 c21 31 48 62
61 69 23 12 24 15 30 234 3 121 4 343 2 491 -5 298 2 392 39 540 21 84 25 124
25 250 0 164 10 249 41 334 16 46 19 70 13 137 -6 77 -5 81 21 112 15 17 40
41 56 52 29 21 29 21 196 4 209 -22 559 -24 744 -5 133 13 138 13 210 -9 78
-24 102 -23 274 0 58 8 130 9 260 1 348 -20 468 -23 560 -11 171 22 201 23
251 6 62 -21 114 -20 216 3 98 23 179 27 383 16 124 -6 161 -5 212 9 47 12
107 16 255 16 106 -1 211 3 233 9 23 6 92 7 160 4 66 -3 156 -6 200 -6z"/>
<path d="M1193 3125 c-213 -58 -328 -226 -309 -455 16 -198 135 -311 411 -389
192 -55 235 -77 274 -142 39 -63 24 -205 -27 -263 -61 -69 -232 -89 -331 -40
-56 28 -104 88 -116 145 -10 45 -32 50 -114 29 -113 -29 -115 -34 -71 -153 27
-73 109 -163 182 -200 143 -72 358 -73 504 -2 64 31 138 109 170 178 35 77 50
189 36 271 -32 196 -149 297 -432 376 -162 46 -224 79 -255 140 -37 73 -24
174 31 238 45 53 108 77 199 77 125 0 214 -57 248 -158 20 -60 33 -64 122 -42
94 23 101 31 86 91 -38 152 -147 257 -308 299 -71 19 -230 18 -300 0z"/>
<path d="M2866 3118 c-27 -42 -517 -1432 -514 -1458 3 -24 5 -25 97 -28 52 -1
98 1 103 6 4 4 30 69 57 143 37 104 53 137 72 146 28 15 414 18 451 4 18 -7
32 -34 67 -132 63 -179 53 -169 166 -169 83 0 94 2 100 19 7 22 -498 1447
-522 1474 -22 24 -60 21 -77 -5z m61 -570 c4 -7 38 -96 75 -198 47 -132 63
-189 56 -197 -8 -9 -51 -13 -155 -13 -120 0 -145 3 -150 15 -5 13 102 334 129
388 10 20 33 22 45 5z"/>
<path d="M4081 3106 c-8 -9 -10 -212 -9 -742 l3 -729 390 0 390 0 0 95 0 95
-285 5 -285 5 -5 633 c-4 548 -7 634 -20 642 -24 15 -166 12 -179 -4z"/>
<path d="M5223 3113 c-7 -2 -13 -16 -13 -30 0 -22 473 -1365 507 -1441 19 -41
57 -53 83 -26 10 11 134 345 276 743 198 555 255 727 247 740 -13 21 -169 29
-195 9 -9 -7 -82 -200 -163 -428 -168 -474 -178 -500 -199 -500 -18 0 -31 35
-206 530 -83 233 -140 382 -152 393 -16 13 -37 17 -97 16 -42 0 -82 -3 -88 -6z"/>
<path d="M6941 3106 c-8 -9 -10 -212 -9 -742 l3 -729 88 -3 c57 -2 94 1 103 9
12 10 14 126 14 730 0 639 -2 719 -16 733 -21 21 -166 23 -183 2z"/>
<path d="M7778 3109 c-15 -8 -18 -25 -18 -94 0 -56 4 -86 13 -92 6 -4 89 -10
182 -13 l170 -5 3 -624 c1 -450 5 -628 14 -638 8 -10 34 -13 102 -11 l91 3 5
635 c3 349 6 636 8 638 1 1 78 2 171 2 205 0 201 -2 201 105 0 54 -4 78 -16
89 -14 14 -69 16 -462 16 -285 0 -453 -4 -464 -11z"/>
<path d="M1313 718 c-20 -26 -245 -678 -240 -693 7 -16 62 -21 84 -7 7 4 22
37 35 72 l23 65 115 0 114 0 25 -65 c14 -36 30 -68 36 -72 16 -12 72 -9 82 5
7 8 -27 115 -108 342 -65 182 -122 336 -127 344 -12 21 -27 24 -39 9z m58
-348 c41 -111 42 -110 -41 -110 -77 0 -80 3 -57 61 8 19 22 56 31 82 10 26 23
46 28 45 6 -2 23 -37 39 -78z"/>
<path d="M5130 719 c-81 -25 -139 -101 -140 -184 0 -114 48 -166 201 -215 112
-36 134 -56 133 -123 -2 -54 -37 -88 -98 -94 -63 -8 -103 11 -127 59 -20 38
-22 40 -57 33 -20 -4 -41 -10 -46 -15 -15 -15 22 -97 57 -126 45 -38 73 -46
158 -46 63 -1 85 4 120 23 72 40 110 135 90 223 -19 81 -72 123 -199 162 -49
15 -95 36 -109 50 -27 27 -30 71 -8 113 41 79 198 61 220 -26 6 -24 9 -25 48
-19 54 9 60 15 46 57 -18 53 -47 88 -90 110 -47 23 -149 33 -199 18z"/>
<path d="M6156 716 c-60 -23 -89 -47 -116 -102 -24 -47 -25 -56 -25 -244 0
-135 4 -206 13 -232 32 -91 97 -131 212 -131 94 0 148 25 187 85 l28 42 0 231
0 231 -28 42 c-15 24 -45 51 -69 63 -54 28 -149 34 -202 15z m170 -120 l34
-34 0 -197 0 -197 -34 -34 c-30 -30 -40 -34 -86 -34 -46 0 -56 4 -86 34 l-34
34 0 197 0 197 34 34 c30 30 40 34 86 34 46 0 56 -4 86 -34z"/>
<path d="M8244 720 c-90 -21 -147 -95 -147 -189 0 -112 47 -162 193 -208 99
-31 140 -64 140 -113 0 -74 -53 -117 -136 -107 -50 5 -76 24 -94 68 -13 31
-31 36 -74 19 -33 -12 -33 -39 -4 -92 35 -61 92 -90 181 -91 86 0 135 14 170
51 80 84 73 240 -13 302 -18 13 -73 36 -123 51 -111 35 -137 57 -137 115 0 62
31 95 96 101 64 7 105 -14 129 -63 16 -34 19 -36 53 -29 21 4 41 10 46 15 15
15 -4 67 -40 109 -51 60 -146 84 -240 61z"/>
<path d="M2185 709 c-3 -8 -4 -167 -3 -354 l3 -340 140 0 c121 1 146 4 187 22
90 41 118 118 118 328 0 210 -28 287 -118 328 -38 17 -72 22 -184 25 -110 3
-139 2 -143 -9z m300 -120 c35 -35 45 -82 45 -224 0 -142 -10 -189 -45 -224
-23 -23 -34 -26 -115 -29 l-90 -4 0 257 0 257 90 -4 c81 -3 92 -6 115 -29z"/>
<path d="M3184 705 c-7 -18 224 -672 245 -692 11 -12 16 -12 26 -1 18 18 256
688 249 699 -6 11 -75 12 -90 1 -6 -4 -43 -99 -83 -212 -72 -202 -84 -230 -97
-217 -4 3 -40 100 -81 214 -41 114 -79 211 -86 215 -21 14 -77 9 -83 -7z"/>
<path d="M4295 707 c-3 -6 -4 -165 -3 -352 l3 -340 24 -3 c12 -2 34 -1 47 2
l24 6 0 344 c0 304 -2 345 -16 350 -27 10 -74 7 -79 -7z"/>
<path d="M7075 709 c-3 -8 -4 -167 -3 -354 l3 -340 45 0 45 0 3 148 3 147 89
0 c77 0 93 -3 110 -20 11 -11 21 -28 21 -37 1 -10 4 -67 8 -128 l6 -110 33 -3
c55 -5 62 8 62 117 -1 110 -12 172 -41 212 l-19 28 25 36 c66 98 36 229 -65
285 -40 22 -59 25 -182 28 -110 3 -139 2 -143 -9z m269 -103 c62 -26 75 -127
21 -173 -23 -20 -37 -23 -111 -23 l-84 0 0 105 0 105 70 0 c39 0 85 -6 104
-14z"/>
</g>
</svg>

